<?xml version="1.0" standalone="no"?>
<!DOCTYPE svg PUBLIC "-//W3C//DTD SVG 20010904//EN"
 "http://www.w3.org/TR/2001/REC-SVG-20010904/DTD/svg10.dtd">
<svg version="1.0" xmlns="http://www.w3.org/2000/svg"
 width="460.000000pt" height="460.000000pt" viewBox="0 0 460.000000 460.000000"
 preserveAspectRatio="xMidYMid meet">
<metadata>
Created by potrace 1.11, written by Peter Selinger 2001-2013
</metadata>
<g transform="translate(0.000000,460.000000) scale(0.100000,-0.100000)"
fill="#000000" stroke="none">
<path d="M2180 4190 c-62 -4 -111 -14 -141 -27 -40 -18 -49 -28 -65 -69 -9
-27 -30 -82 -45 -123 -16 -41 -26 -78 -23 -82 2 -4 191 -8 419 -8 334 0 415 3
415 13 0 26 -81 231 -98 248 -40 40 -257 63 -462 48z m-20 -55 c0 -8 -7 -15
-15 -15 -11 0 -15 -19 -17 -92 -2 -62 -7 -93 -15 -96 -10 -3 -13 19 -13 88 0
83 -2 92 -20 97 -11 3 -20 12 -20 19 0 10 14 14 50 14 38 0 50 -4 50 -15z m84
-17 c3 -18 10 -60 16 -92 5 -33 10 -68 10 -78 0 -28 -17 -21 -29 12 -5 17 -15
30 -21 30 -7 0 -17 -13 -23 -30 -14 -36 -42 -42 -34 -7 4 12 11 56 17 97 15
98 16 100 39 100 15 0 21 -9 25 -32z m101 2 c4 -16 10 -30 15 -30 5 0 11 14
15 30 4 20 13 30 25 30 17 0 17 -3 -3 -55 l-20 -55 21 -55 c18 -47 19 -55 6
-55 -9 0 -21 14 -27 30 -6 17 -14 30 -18 30 -4 0 -12 -13 -18 -30 -5 -16 -15
-30 -20 -30 -14 0 -14 4 5 66 16 48 16 55 0 93 -20 51 -20 61 -2 61 8 0 17
-13 21 -30z m135 -80 c0 -91 -3 -110 -15 -110 -12 0 -15 19 -15 110 0 91 3
110 15 110 12 0 15 -19 15 -110z"/>
<path d="M2210 4047 c0 -23 4 -36 10 -32 13 8 13 35 0 55 -7 11 -10 5 -10 -23z"/>
<path d="M1975 3650 c-7 -12 12 -12 40 0 18 8 17 9 -7 9 -15 1 -30 -3 -33 -9z"/>
<path d="M2518 3653 c7 -3 16 -2 19 1 4 3 -2 6 -13 5 -11 0 -14 -3 -6 -6z"/>
<path d="M2550 3656 c0 -2 7 -7 16 -10 8 -3 12 -2 9 4 -6 10 -25 14 -25 6z"/>
<path d="M2778 3623 c7 -3 16 -2 19 1 4 3 -2 6 -13 5 -11 0 -14 -3 -6 -6z"/>
<path d="M1415 3510 c-3 -5 -1 -10 4 -10 6 0 11 5 11 10 0 6 -2 10 -4 10 -3 0
-8 -4 -11 -10z"/>
<path d="M3188 3503 c7 -3 16 -2 19 1 4 3 -2 6 -13 5 -11 0 -14 -3 -6 -6z"/>
<path d="M1346 3475 c-11 -8 -17 -17 -14 -20 2 -3 13 4 23 15 21 23 18 25 -9
5z"/>
<path d="M3367 3313 c-4 -3 -7 -11 -7 -17 0 -6 5 -5 12 2 6 6 9 14 7 17 -3 3
-9 2 -12 -2z"/>
<path d="M1211 3264 c0 -11 3 -14 6 -6 3 7 2 16 -1 19 -3 4 -6 -2 -5 -13z"/>
<path d="M1173 3177 c-8 -16 -8 -29 -1 -38 8 -12 9 -12 5 1 -2 8 0 23 5 33 5
10 8 21 5 23 -2 2 -9 -6 -14 -19z"/>
<path d="M3441 3124 c0 -11 3 -14 6 -6 3 7 2 16 -1 19 -3 4 -6 -2 -5 -13z"/>
<path d="M1121 3014 c0 -11 3 -14 6 -6 3 7 2 16 -1 19 -3 4 -6 -2 -5 -13z"/>
<path d="M1109 2952 c-3 -20 -2 -29 4 -23 5 5 7 19 5 32 -3 20 -5 19 -9 -9z"/>
<path d="M1092 2860 c0 -14 2 -19 5 -12 2 6 2 18 0 25 -3 6 -5 1 -5 -13z"/>
<path d="M3522 2740 c0 -19 2 -27 5 -17 2 9 2 25 0 35 -3 9 -5 1 -5 -18z"/>
<path d="M1638 2713 c7 -3 16 -2 19 1 4 3 -2 6 -13 5 -11 0 -14 -3 -6 -6z"/>
<path d="M2973 2713 c9 -2 23 -2 30 0 6 3 -1 5 -18 5 -16 0 -22 -2 -12 -5z"/>
<path d="M1568 2703 c7 -3 16 -2 19 1 4 3 -2 6 -13 5 -11 0 -14 -3 -6 -6z"/>
<path d="M1062 2680 c0 -14 2 -19 5 -12 2 6 2 18 0 25 -3 6 -5 1 -5 -13z"/>
<path d="M1453 2693 c9 -2 23 -2 30 0 6 3 -1 5 -18 5 -16 0 -22 -2 -12 -5z"/>
<path d="M3525 2649 c-4 -6 -5 -12 -2 -15 2 -3 7 2 10 11 7 17 1 20 -8 4z"/>
<path d="M3459 2629 c14 -5 28 -6 32 -2 4 4 -6 9 -24 10 -30 1 -31 1 -8 -8z"/>
<path d="M1055 2620 c-3 -5 1 -10 10 -10 9 0 13 5 10 10 -3 6 -8 10 -10 10 -2
0 -7 -4 -10 -10z"/>
<path d="M1108 2623 c7 -3 16 -2 19 1 4 3 -2 6 -13 5 -11 0 -14 -3 -6 -6z"/>
<path d="M928 2266 c-61 -18 -135 -71 -170 -122 -107 -157 -51 -363 124 -456
62 -33 193 -32 260 0 58 29 122 93 151 152 34 69 32 196 -5 266 -31 60 -94
119 -153 145 -57 25 -148 32 -207 15z m198 -113 c30 -17 43 -30 40 -40 -3 -8
-2 -12 3 -8 13 7 54 -62 45 -76 -5 -8 -3 -9 5 -4 10 5 12 -7 10 -51 -2 -60
-26 -127 -41 -118 -4 3 -5 -2 -2 -10 7 -19 -65 -72 -120 -87 -28 -8 -51 -8
-73 -1 -18 6 -31 6 -28 1 17 -26 -67 22 -106 61 -42 42 -48 54 -54 104 -4 30
-4 72 0 93 8 42 59 121 83 130 10 4 19 9 22 13 30 35 147 32 216 -7z"/>
<path d="M863 2105 c0 -8 4 -12 9 -9 5 3 6 10 3 15 -9 13 -12 11 -12 -6z"/>
<path d="M3570 2267 c-140 -39 -225 -152 -225 -297 0 -124 59 -219 170 -278
43 -23 62 -27 135 -27 73 0 92 4 135 27 111 59 169 154 169 278 0 88 -22 145
-79 208 -72 80 -203 118 -305 89z m148 -93 c18 -3 30 -9 27 -14 -3 -6 0 -7 8
-4 18 7 87 -72 104 -119 17 -46 16 -112 -2 -127 -8 -7 -12 -16 -10 -21 10 -15
-38 -76 -82 -104 -62 -39 -180 -41 -227 -4 -68 54 -93 93 -102 163 -7 49 2
100 15 91 5 -3 7 3 4 13 -5 21 61 102 84 102 7 0 13 4 13 9 0 5 12 14 28 19
25 9 58 8 140 -4z"/>
<path d="M1690 2201 c-16 -31 -12 -69 9 -81 30 -15 1193 -14 1209 2 7 7 12 26
12 43 0 17 -5 36 -12 43 -9 9 -158 12 -610 12 -580 0 -598 -1 -608 -19z"/>
<path d="M1697 2022 c-24 -26 -21 -68 5 -86 20 -14 93 -16 598 -16 634 0 620
-1 620 60 0 61 15 60 -626 60 -550 0 -582 -1 -597 -18z"/>
<path d="M1690 1831 c-14 -28 -12 -57 6 -75 14 -14 82 -16 600 -16 384 0 592
4 605 10 22 12 27 68 7 88 -9 9 -158 12 -610 12 -580 0 -598 -1 -608 -19z"/>
<path d="M760 888 c0 -184 12 -221 82 -262 43 -25 50 -26 214 -26 156 0 173 2
214 22 30 15 53 37 67 63 21 37 23 53 23 198 l0 157 -300 0 -300 0 0 -152z"/>
<path d="M3240 880 c0 -181 5 -200 67 -247 36 -28 38 -28 202 -31 91 -2 180
-1 199 3 48 9 107 66 121 117 7 26 10 98 9 178 l-3 135 -297 3 -298 2 0 -160z"/>
</g>
</svg>
